<?xml version="1.0" encoding="UTF-8"?>
<svg width="183px" height="55px" viewBox="0 0 183 55" version="1.1" xmlns="http://www.w3.org/2000/svg" xmlns:xlink="http://www.w3.org/1999/xlink">
    <!-- Generator: Sketch 46.2 (44496) - http://www.bohemiancoding.com/sketch -->
    <title>intuit</title>
    <desc>Created with Sketch.</desc>
    <defs>
        <polygon id="path-1" points="4.60928324e-16 37.9517709 4.60928324e-16 0.371071029 9.43312963 0.371071029 9.43312963 37.9517709"></polygon>
        <polygon id="path-3" points="0.365569275 0.387353248 12.2315152 0.387353248 12.2315152 12.2550835 0.365569275 12.2550835 0.365569275 0.387353248"></polygon>
        <polygon id="path-5" points="0.150629113 0.387353248 12.019549 0.387353248 12.019549 12.2550835 0.150629113 12.2550835 0.150629113 0.387353248"></polygon>
    </defs>
    <g id="Welcome" stroke="none" stroke-width="1" fill="none" fill-rule="evenodd">
        <g id="Desktop-HD" transform="translate(-1133.000000, -3204.000000)">
            <g id="Group-4" transform="translate(121.000000, 3148.000000)">
                <g id="intuit" transform="translate(1012.000000, 56.000000)">
                    <g id="Group-3" transform="translate(0.000000, 15.969586)">
                        <mask id="mask-2" fill="white">
                            <use xlink:href="#path-1"></use>
                        </mask>
                        <g id="Clip-2"></g>
                        <path d="M7.3788935,0.371071029 L2.05334395,0.371071029 C0.919536463,0.37404495 -0.000148696064,1.28926923 -0.000148696064,2.42307672 L-0.000148696064,35.8982782 C-0.000148696064,37.0343162 0.919536463,37.9517709 2.05334395,37.9517709 L7.3788935,37.9517709 C7.94616899,37.9517709 8.46065737,37.721292 8.83239753,37.3510388 C9.20339422,36.9800421 9.43312963,36.4655537 9.43312963,35.8982782 L9.43312963,2.42307672 C9.43312963,1.28926923 8.51344448,0.37404495 7.3788935,0.371071029" id="Fill-1" fill="#375EBF" mask="url(#mask-2)"></path>
                    </g>
                    <path d="M141.43189,16.3406566 L136.105597,16.3406566 C134.971789,16.3436305 134.055822,17.2588548 134.052848,18.3926623 L134.052848,51.8678638 C134.055822,53.0039018 134.971789,53.9183826 136.105597,53.9213565 L141.43189,53.9213565 C142.566441,53.9183826 143.481665,53.0039018 143.484639,51.8678638 L143.484639,18.3926623 C143.481665,17.2588548 142.566441,16.3436305 141.43189,16.3406566" id="Fill-4" fill="#375EBF"></path>
                    <path d="M84.1418242,16.3406566 L73.7189735,16.3406566 L68.3956544,16.3406566 L57.8969688,16.3406566 C56.7624178,16.3406566 55.8419892,17.2588548 55.8419892,18.3926623 L55.8419892,23.7196988 C55.8419892,24.8527628 56.7624178,25.772448 57.8969688,25.7739349 L66.3406748,25.7739349 L66.3406748,51.8678638 C66.3406748,53.0039018 67.2596165,53.9183826 68.3956544,53.9213565 L73.7189735,53.9213565 C74.8535245,53.9198695 75.7746966,53.0039018 75.7746966,51.8678638 L75.7746966,25.7739349 L84.1418242,25.7739349 C85.2793491,25.772448 86.1975473,24.8527628 86.1975473,23.7196988 L86.1975473,18.3926623 C86.1975473,17.8268738 85.9678119,17.3131289 85.5968152,16.9413887 C85.225075,16.570392 84.7090997,16.3406566 84.1418242,16.3406566" id="Fill-6" fill="#375EBF"></path>
                    <path d="M179.623136,23.7198475 L179.623136,18.392811 C179.623136,17.2590035 178.701964,16.3408053 177.570387,16.3408053 L167.145306,16.3408053 L161.821243,16.3408053 L151.323301,16.3408053 C150.188006,16.3408053 149.267578,17.2590035 149.267578,18.392811 L149.267578,23.7198475 C149.267578,24.852168 150.188006,25.7718532 151.323301,25.7733402 L159.766263,25.7733402 L159.766263,51.8680125 C159.766263,53.0040505 160.686692,53.9200182 161.821243,53.9215052 L167.145306,53.9215052 C168.279113,53.9200182 169.200285,53.0040505 169.200285,51.8680125 L169.200285,25.7733402 L177.570387,25.7733402 C178.701964,25.7718532 179.623136,24.852168 179.623136,23.7198475" id="Fill-8" fill="#375EBF"></path>
                    <path d="M43.9543336,16.3551545 L43.9528467,16.3536675 L43.9498727,16.3536675 C42.4852165,15.8481009 41.0436082,15.6332351 39.6555304,15.6332351 C34.6281165,15.637696 30.3218784,18.4205428 27.996272,20.338722 L27.996272,18.393034 C27.996272,17.2584831 27.0765868,16.3432588 25.9420358,16.3402849 L20.6172298,16.3402849 C19.4826788,16.3432588 18.5629936,17.2584831 18.5629936,18.393034 L18.5629936,51.8682356 C18.5629936,53.00353 19.4826788,53.9217282 20.6172298,53.9217282 L25.9420358,53.9217282 C26.5093113,53.9217282 27.0245432,53.6905058 27.3955399,53.3209961 C27.7665366,52.9499994 27.996272,52.4347676 27.996272,51.8682356 L27.996272,28.0887609 C32.093592,25.2352835 35.0303393,24.2092806 37.0957276,24.2122545 C38.2823222,24.2137415 39.1841639,24.5445902 39.8904702,25.062796 C40.9476992,25.8404764 41.5662748,27.067219 41.919428,28.2776049 C42.2718376,29.4820431 42.3580814,30.6604594 42.3759249,31.3154655 L42.3759249,51.8682356 C42.3759249,53.00353 43.2948666,53.9187543 44.4309045,53.9217282 L49.7549671,53.9217282 C50.8895181,53.9202413 51.8099467,53.00353 51.8099467,51.8682356 L51.8099467,28.4032531 C51.8114337,28.3764878 51.8203554,28.2382005 51.8203554,27.9987998 C51.8203554,27.1036495 51.703629,24.8806433 50.6627566,22.5297586 C49.6233711,20.1803607 47.6427395,17.7015973 43.9543336,16.3551545" id="Fill-10" fill="#375EBF"></path>
                    <g id="Group-14" transform="translate(91.448080, 15.969586)" fill="#375EBF">
                        <path d="M31.9283164,0.371071029 L26.6042538,0.371071029 C26.0340044,0.37404495 25.4169157,0.608984732 24.9202708,0.980724893 C24.4295738,1.35023461 24.0437075,1.87067084 24.0407336,2.47883774 L24.0407336,26.2664907 C20.1582794,29.1563987 17.3456933,30.1987581 15.3576269,30.1957842 C14.2438934,30.1942972 13.3844302,29.8783181 12.7004283,29.3727514 C11.6766559,28.6158885 11.0446976,27.4114504 10.6737009,26.1906557 C10.2997303,24.9713479 10.1859778,23.7431184 10.1711082,22.9713859 L10.1711082,2.42307672 C10.1711082,1.28926923 9.24993608,0.371071029 8.11910251,0.371071029 L2.792066,0.371071029 C1.65751503,0.37404495 0.740803793,1.28926923 0.739316833,2.42307672 L0.739316833,25.8880592 C0.737829872,25.914081 0.729651588,26.0545988 0.729651588,26.2977168 C0.729651588,27.1950976 0.846377999,29.4166168 1.88725045,31.7675016 C2.92589246,34.1161559 4.90503708,36.5926889 8.591956,37.9406187 L8.59492992,37.9421056 L8.59790384,37.9421056 C10.0595862,38.4461853 11.5011945,38.6610511 12.8900157,38.6610511 C17.9181732,38.6565902 22.2244112,35.8729999 24.5492742,33.9540772 L24.5492742,35.8982782 C24.5492742,37.0343162 25.4697028,37.9502839 26.6042538,37.9517709 L31.9283164,37.9517709 C32.4926179,37.9577187 32.9253235,37.7019615 33.1587763,37.3094039 C33.3959465,36.9183332 33.4717815,36.4261493 33.4717815,35.8982782 L33.4717815,2.42307672 C33.4717815,1.89743613 33.3959465,1.40450868 33.1587763,1.01418151 C32.9253235,0.620880417 32.4926179,0.365123186 31.9283164,0.371071029" id="Fill-12"></path>
                    </g>
                    <g id="Group-17" transform="translate(64.682788, 0.356499)">
                        <mask id="mask-4" fill="white">
                            <use xlink:href="#path-3"></use>
                        </mask>
                        <g id="Clip-16"></g>
                        <path d="M6.29854225,12.2550835 C9.57431655,12.2535966 12.2315152,9.59788487 12.2315152,6.31913665 C12.2315152,3.04410583 9.57431655,0.38690716 6.29854225,0.38690716 C3.02276795,0.38690716 0.365569275,3.04410583 0.365569275,6.31913665 C0.365569275,9.59788487 3.02276795,12.2535966 6.29854225,12.2550835" id="Fill-15" fill="#375EBF" mask="url(#mask-4)"></path>
                    </g>
                    <g id="Group-20" transform="translate(158.361309, 0.356499)">
                        <mask id="mask-6" fill="white">
                            <use xlink:href="#path-5"></use>
                        </mask>
                        <g id="Clip-19"></g>
                        <path d="M6.08508905,12.2550835 C9.36235031,12.2535966 12.019549,9.59788487 12.019549,6.31913665 C12.019549,3.04410583 9.36235031,0.38690716 6.08508905,0.38690716 C2.80782779,0.38690716 0.150629113,3.04410583 0.150629113,6.31913665 C0.150629113,9.59788487 2.80782779,12.2535966 6.08508905,12.2550835" id="Fill-18" fill="#375EBF" mask="url(#mask-6)"></path>
                    </g>
                    <path d="M181.909487,51.7303943 C181.67529,52.1452563 181.353363,52.4686703 180.935527,52.6998927 C180.520665,52.9318585 180.08796,53.0485849 179.632206,53.0485849 C179.184631,53.0485849 178.745978,52.9318585 178.331116,52.6998927 C177.909562,52.4686703 177.590609,52.1452563 177.36013,51.7303943 C177.123704,51.3125584 177.009208,50.8798528 177.009208,50.4278168 C177.009208,49.9720633 177.125934,49.5348969 177.363104,49.1126001 C177.602505,48.6903033 177.924432,48.3683763 178.342268,48.1431018 C178.760847,47.9155968 179.190579,47.8011008 179.632206,47.8011008 C180.07309,47.8011008 180.502822,47.9155968 180.921401,48.1431018 C181.338494,48.3683763 181.669342,48.6903033 181.899821,49.1126001 C182.137735,49.5348969 182.254461,49.9720633 182.254461,50.4278168 C182.254461,50.8798528 182.137735,51.3125584 181.909487,51.7303943 M182.354088,48.850895 C182.073052,48.3483023 181.680495,47.9579752 181.178645,47.6873483 C180.672335,47.4182084 180.160821,47.2806646 179.632206,47.2806646 C179.108053,47.2806646 178.59059,47.4182084 178.087998,47.6873483 C177.588379,47.9579752 177.193591,48.3483023 176.909581,48.850895 C176.628546,49.3549747 176.488772,49.8798718 176.488772,50.4278168 C176.488772,50.9675835 176.626315,51.4880197 176.906607,51.9891255 C177.181695,52.4902312 177.570535,52.8746105 178.070898,53.1526722 C178.567543,53.4292468 179.087979,53.5667907 179.632206,53.5667907 C180.17569,53.5667907 180.698357,53.4292468 181.198719,53.1526722 C181.696108,52.8746105 182.081231,52.4902312 182.360036,51.9891255 C182.637354,51.4880197 182.774154,50.9675835 182.774154,50.4278168 C182.774154,49.8798718 182.63438,49.3549747 182.354088,48.850895" id="Fill-21" fill="#375EBF"></path>
                    <path d="M179.464849,50.2600876 L178.803895,50.2600876 L178.803895,49.2385457 L179.418753,49.2385457 C179.684176,49.2385457 179.868559,49.2601066 179.965211,49.2980241 C180.064838,49.3359416 180.145877,49.3976505 180.201638,49.4779463 C180.253682,49.5567552 180.286395,49.6444859 180.286395,49.7441123 C180.286395,49.9032171 180.224686,50.0244044 180.110933,50.1195698 C179.997181,50.2147353 179.780828,50.2600876 179.464849,50.2600876 M180.181564,50.830337 C180.110933,50.7611934 180.014281,50.7017149 179.894581,50.6519018 C180.187512,50.6281104 180.420965,50.5255101 180.596426,50.3433574 C180.771887,50.1619482 180.862592,49.9441085 180.862592,49.697273 C180.862592,49.5232986 180.810548,49.3552721 180.704974,49.2043456 C180.596426,49.0482147 180.455908,48.9381796 180.278216,48.8772142 C180.102012,48.8155054 179.812798,48.7820487 179.418753,48.7820487 L178.251489,48.7820487 L178.251489,52.1648842 L178.803895,52.1648842 L178.803895,50.7277367 L179.119874,50.7277367 C179.313179,50.7277367 179.455927,50.7656542 179.555554,50.8459501 C179.698302,50.9485504 179.894581,51.2102555 180.128777,51.6325523 L180.426912,52.1648842 L181.093071,52.1648842 L180.684157,51.5024432 C180.485647,51.1879511 180.318364,50.9626765 180.181564,50.830337" id="Fill-23" fill="#375EBF"></path>
                </g>
            </g>
        </g>
    </g>
</svg>