<?xml version="1.0" encoding="UTF-8"?>
<svg width="95px" height="56px" viewBox="0 0 95 56" version="1.1" xmlns="http://www.w3.org/2000/svg" xmlns:xlink="http://www.w3.org/1999/xlink">
    <!-- Generator: Sketch 46.2 (44496) - http://www.bohemiancoding.com/sketch -->
    <title>mmrun_logo</title>
    <desc>Created with Sketch.</desc>
    <defs></defs>
    <g id="Welcome" stroke="none" stroke-width="1" fill="none" fill-rule="evenodd">
        <g id="Desktop-HD" transform="translate(-121.000000, -3148.000000)" fill="#222628">
            <g id="Group-4" transform="translate(121.000000, 3148.000000)">
                <path d="M47.0383139,31.8247642 L47.0298831,31.8247642 L46.8393491,31.8213569 C40.7355137,31.8213569 35.7613936,30.3118953 32.1125815,28.0034074 C35.7613936,25.6932157 40.7405721,24.1786431 46.8494659,24.1786431 L47.0416861,24.1752358 L47.0501169,24.1752358 L47.2423371,24.1786431 C53.3444863,24.1786431 58.3202925,25.6898083 61.9674185,27.9965926 C58.3186064,30.3067843 53.3411141,31.8213569 47.2305341,31.8213569 L47.0383139,31.8247642 Z M76.6655215,27.9965926 C86.9712237,23.415394 93.7023041,16.5393368 94.068197,8.90684515 C94.068197,8.90684515 91.3501355,6.78916946 82.5670199,3.52491634 C74.8495462,0.657620931 68.9665955,0 68.9665955,0 L68.9935737,17.0044417 C68.9935737,19.546334 67.9835744,22.1444478 66.0748613,24.44101 C60.2441809,23.0167326 53.8064894,22.2142988 47.0501169,22.2125951 L47.0467446,22.2125951 L47.0450584,22.2125951 C40.2785691,22.2142988 33.8341329,23.0184363 27.9983942,24.4461211 C26.0863087,22.1478552 25.0746233,19.5480377 25.0746233,17.0044417 L25.0999154,0 C25.0999154,0 19.2186508,0.657620931 11.5011771,3.52491634 C2.71806151,6.78916946 0,8.90684515 0,8.90684515 C0.365892896,16.5427441 7.10034554,23.4222087 17.4161646,28.0017037 C7.10877626,32.5829023 0.377695892,39.4606632 0.0118029966,47.0931549 C0.0118029966,47.0931549 2.72986451,49.2108305 11.5129801,52.4750837 C19.2304538,55.3406754 25.1134045,56 25.1134045,56 L25.0864263,38.9955583 C25.0864263,36.4519623 26.0981117,33.8555522 28.0068249,31.55899 C33.8375052,32.9832674 40.2735106,33.7857012 47.0315693,33.7874049 L47.0332554,33.7874049 L47.0366277,33.7874049 C53.8014309,33.7857012 60.2458671,32.9815637 66.0816058,31.5538789 C67.9936913,33.8521448 69.0053767,36.4502586 69.0053767,38.9955583 L68.9800846,56 C68.9800846,56 74.8613492,55.3406754 82.5788229,52.4750837 C91.3619385,49.2108305 94.08,47.0931549 94.08,47.0931549 C93.7141071,39.4572559 86.9796545,32.5777913 76.6655215,27.9965926 L76.6655215,27.9965926 Z" id="mmrun_logo"></path>
            </g>
        </g>
    </g>
</svg>