<?xml version="1.0" encoding="UTF-8"?>
<svg width="93px" height="65px" viewBox="0 0 93 65" version="1.1" xmlns="http://www.w3.org/2000/svg" xmlns:xlink="http://www.w3.org/1999/xlink">
    <!-- Generator: Sketch 46.2 (44496) - http://www.bohemiancoding.com/sketch -->
    <title>Logo</title>
    <desc>Created with Sketch.</desc>
    <defs></defs>
    <g id="Welcome" stroke="none" stroke-width="1" fill="none" fill-rule="evenodd">
        <g id="Desktop-HD-Copy-4" transform="translate(-539.000000, -162.000000)" fill="#23282E">
            <path d="M631.942972,165.477204 C632.149498,166.264274 631.782269,167.068622 631.048777,167.433681 C624.771988,170.557646 606.044883,181.862659 600.425106,197 C599.834569,192.722626 598.771281,188.392461 597.406593,184.188355 C598.640266,180.852586 603.712748,177.757097 607.376978,175.892125 C607.725169,175.715194 607.505412,175.1924 607.133664,175.31366 C603.157385,176.611046 597.601825,178.783488 596.350727,181.120702 C594.254161,175.357493 591.65096,169.92607 589,165.313711 C589.137469,164.616866 589.453067,164.093753 589.77996,163.726134 C591.860391,161.38636 597.032264,161.851243 601.002734,162.652071 C611.41941,164.754764 624.89074,164.436416 630.199115,164.201895 C631.018121,164.17022 631.736768,164.690134 631.942972,165.477204 Z M588.719962,201.992823 C591.068799,201.497304 594.749222,199.221125 596.506349,197.20983 C596.957282,200.528263 597.082631,203.51457 596.94989,206.062231 C593.575446,211.325974 587.407018,215.547463 581.940862,218.49952 C575.602732,221.922587 569.383843,224.124611 566.240811,225.13293 C562.366581,226.375025 559.672554,227 558.194728,227 C557.703298,227 557.346858,226.930873 557.125409,226.792303 C556.426351,226.354601 555.160975,223.463816 553.70629,219.343504 L549.546972,224.515496 C549.478513,224.600648 549.3522,224.615416 549.26542,224.548488 L547.473259,223.170966 C547.38648,223.104038 547.371373,222.980866 547.439833,222.895713 L551.11447,218.326388 L544.777625,217.101574 C544.66899,217.080522 544.598281,216.977459 544.619815,216.871254 L545.06207,214.684941 C545.083604,214.578736 545.189025,214.509923 545.297661,214.530661 L552.54987,215.932692 C550.830669,210.671463 548.994796,204.250777 547.577716,198.407621 L542.584028,202.855973 C542.502391,202.928871 542.375435,202.923216 542.300869,202.843091 L540.765511,201.195971 C540.690945,201.115846 540.697052,200.992045 540.778689,200.919147 L545.173598,197.004019 L539.129875,194.774972 C539.026061,194.736952 538.973993,194.623834 539.012883,194.522342 L539.817363,192.437521 C539.856575,192.336029 539.972281,192.285126 540.075774,192.323146 L546.736918,194.779999 C545.765949,190.367467 545.135029,186.5598 545.120566,184.25 C545.109316,182.457085 546.527361,180.997867 548.349091,180.928425 C557.064342,180.59787 580.557851,174.958325 587.181712,170 C588.437768,172.30006 589.551762,174.572154 590.537836,176.801515 C589.890524,178.656959 587.193604,181.407604 585.283166,182.454571 C584.988758,182.616078 585.164888,183.054409 585.493044,182.977112 C587.338558,182.542237 590.196503,180.62992 591.720611,179.60809 C593.705937,184.556675 595.056165,189.252001 595.892785,193.516223 C595.078342,196.032463 591.167471,199.865896 588.450945,201.271697 C588.043081,201.48285 588.268708,202.08803 588.719962,201.992823 Z M581.977519,204.745667 C590.189519,185.34973 571.524302,176.142035 559.47542,188.856291 C555.077002,193.497382 552.719604,203.013982 558.140666,204.756309 C560.522021,205.52153 562.826908,204.976642 564.755688,203.982011 C565.425526,206.968096 566.269962,210.517221 567.011674,213.461054 C564.089459,214.55302 561.596848,214.737049 560.353659,214.608417 C558.239452,214.389648 559.712046,219.528994 563.707773,218.764711 C564.88762,218.539057 566.401238,218.118107 568.065167,217.463992 C568.065167,217.463992 568.157717,217.890262 568.280133,218.218885 C568.877112,219.820999 572.187577,218.847024 571.506252,216.314751 C571.431424,216.036517 571.406154,215.90319 571.406154,215.90319 C575.460299,213.693281 579.69495,210.136957 581.977519,204.745667 Z M573.254113,189.70063 C578.942146,192.497372 580.345675,203.277778 572.828359,209.847137 C571.858516,210.694916 570.875348,211.405317 569.904235,212 C569.227534,208.749356 568.450898,204.753656 567.889677,201.606973 C568.462637,201.01786 568.885218,200.481964 569.118399,200.110984 C570.297312,198.234731 568.999112,196.297216 568.319555,197.147161 C568.164419,197.34116 567.800529,197.711212 567.311959,198.153357 C567.228522,197.596731 567.168243,197.140973 567.139373,196.826923 C566.881129,194.000478 563.114381,196.330014 563.195915,198.226377 C563.211144,198.584053 563.374212,199.521561 563.631187,200.807153 C561.717515,201.792309 559.964691,201.882347 560.000541,198.975146 C560.074778,192.987784 567.566396,186.903888 573.254113,189.70063 Z" id="Logo"></path>
        </g>
    </g>
</svg>