<?xml version="1.0" encoding="UTF-8"?>
<svg width="91px" height="65px" viewBox="0 0 91 65" version="1.1" xmlns="http://www.w3.org/2000/svg" xmlns:xlink="http://www.w3.org/1999/xlink">
    <!-- Generator: Sketch 46 (44423) - http://www.bohemiancoding.com/sketch -->
    <title>Logo</title>
    <desc>Created with Sketch.</desc>
    <defs></defs>
    <g id="Welcome" stroke="none" stroke-width="1" fill="none" fill-rule="evenodd">
        <g id="Desktop-HD" transform="translate(-65.000000, -28.000000)" fill="#FFFFFF">
            <g id="TopBar" transform="translate(65.000000, 28.000000)">
                <path d="M90.9440732,3.43041292 C91.1466116,4.20689166 90.786473,5.00041505 90.0671452,5.3605623 C83.9115601,8.44248846 65.546074,19.5953745 60.0348142,34.5290175 C59.455681,30.3092028 58.4129246,26.0373072 57.0745889,21.8897744 C58.2844393,18.5988934 63.2589724,15.5450594 66.8524467,13.7051836 C67.1939138,13.5306337 66.9784003,13.014875 66.6138311,13.1345032 C62.714334,14.4144306 57.2660509,16.5576382 56.0391113,18.8634012 C53.98303,13.1777462 51.4300968,7.81941162 48.8303265,3.26911998 C48.9651411,2.58165223 49.2746451,2.06557795 49.5952254,1.70290556 C51.6354834,-0.605382641 56.707488,-0.146755161 60.6012888,0.643296169 C70.8168195,2.71769383 84.0280197,2.40363027 89.2338895,2.17226486 C90.0370809,2.14101633 90.7418512,2.65393419 90.9440732,3.43041292 Z M48.9557737,39.8793347 C51.2685091,39.3815677 54.8923642,37.0950588 56.6224852,35.0746359 C57.0664873,38.4081285 57.1899092,41.4079878 57.0592086,43.9672112 C53.7366294,49.254842 47.6630091,53.4954891 42.2808675,56.4609434 C36.040153,59.8995448 29.9168474,62.1115622 26.8221239,63.1244567 C23.0074397,64.3721885 20.3548196,65 18.8997077,65 C18.4158308,65 18.0648698,64.9305588 17.8468245,64.7913608 C17.1585104,64.3516718 15.9125828,61.4477676 14.4802565,57.3087572 L10.3848667,62.5042206 C10.3174594,62.5897595 10.1930882,62.6045947 10.1076423,62.537363 L8.34302646,61.1535895 C8.25758057,61.0863578 8.24270666,60.9626262 8.31011397,60.8770873 L11.9282726,56.2870248 L5.68882399,55.0566532 C5.5818584,55.0355052 5.51223583,54.9319747 5.53343906,54.8252878 L5.96889663,52.6290524 C5.99009987,52.5223655 6.0939008,52.45324 6.20086639,52.4740723 L13.3416109,53.8824659 C11.6488329,48.5973602 9.84117771,42.1475364 8.445878,36.2778622 L3.52894181,40.7464027 C3.44855939,40.8196316 3.32355522,40.81395 3.25013504,40.7334614 L1.73837575,39.0788672 C1.66495558,38.9983786 1.67096844,38.8740157 1.75135087,38.8007868 L6.07871042,34.8678905 L0.127878988,32.6287278 C0.0256603876,32.5905352 -0.0256071454,32.4769042 0.0126852712,32.3749519 L0.804800304,30.2806688 C0.843409187,30.1787165 0.957337038,30.1275825 1.05923917,30.1657752 L7.61800228,32.6337781 C6.66195772,28.2012208 6.04073447,24.376274 6.02649349,22.0559914 C6.01541717,20.2549395 7.41166628,18.7890992 9.205397,18.7193423 C17.7866959,18.3872872 40.9191132,12.7221489 47.4411662,7.74132185 C48.6779163,10.0518195 49.7747884,12.3342251 50.7457068,14.5737034 C50.1083438,16.437568 47.4528755,19.200696 45.5718001,20.2524144 C45.281917,20.4146542 45.4553405,20.8549745 45.7784525,20.7773266 C47.5956018,20.3404784 50.4096197,18.4194827 51.9103027,17.3930156 C53.8651147,22.3640577 55.1945894,27.0806926 56.0183511,31.3642669 C55.2164256,33.8919262 51.3656642,37.7427557 48.6908915,39.1549369 C48.2892958,39.3670482 48.5114551,39.9749742 48.9557737,39.8793347 Z M41.9207289,43.0755232 C49.8393475,23.5142563 31.8409623,14.2280757 20.2225367,27.0507066 C15.981256,31.7313583 13.7080789,41.3290774 18.9354684,43.086255 C21.2317476,43.8579992 23.4542901,43.3084668 25.3141622,42.3053573 C25.9600699,45.3168954 26.7743375,48.896273 27.4895513,51.8651994 C24.6717357,52.9664735 22.2681746,53.1520708 21.0694004,53.0223421 C19.0307248,52.8017085 20.4507089,57.9848618 24.3036855,57.2140647 C25.4413817,56.986487 26.900924,56.5619488 28.5054079,55.9022575 C28.5054079,55.9022575 28.5946514,56.3321616 28.7126933,56.6635854 C29.2883455,58.2793556 32.4805406,57.2970784 31.8235566,54.743221 C31.7514023,54.4626154 31.7270344,54.328152 31.7270344,54.328152 C35.636342,52.0994056 39.7197061,48.5127682 41.9207289,43.0755232 Z M34.1817998,27.4321597 C39.8557233,30.2852456 41.25577,41.2828358 33.7571021,47.9845417 C32.7896648,48.8494002 31.8089359,49.5741136 30.8402327,50.1807771 C30.1652101,46.8646448 29.3905008,42.788447 28.830672,39.5783703 C29.40221,38.9773884 29.8237431,38.4306969 30.0563458,38.0522424 C31.2323344,36.1381908 29.9373544,34.1616421 29.2594837,35.02871 C29.1047317,35.2266174 28.7417449,35.6041249 28.2543869,36.055177 C28.1711563,35.4873375 28.1110277,35.0223971 28.0822293,34.7020208 C27.8246257,31.8186333 24.0672219,34.1951001 24.1485537,36.1296684 C24.1637441,36.4945503 24.3264078,37.4509449 24.5827454,38.7624364 C22.673821,39.7674397 20.9253449,39.8592915 20.9611056,36.8935215 C21.0351587,30.7855378 28.5081928,24.5790738 34.1817998,27.4321597 Z" id="Logo"></path>
            </g>
        </g>
    </g>
</svg>