<?xml version="1.0" encoding="UTF-8"?>
<svg width="805px" height="573px" viewBox="0 0 805 573" version="1.1" xmlns="http://www.w3.org/2000/svg" xmlns:xlink="http://www.w3.org/1999/xlink">
    <!-- Generator: Sketch 46.1 (44463) - http://www.bohemiancoding.com/sketch -->
    <title>Logo</title>
    <desc>Created with Sketch.</desc>
    <defs></defs>
    <g id="Welcome" stroke="none" stroke-width="1" fill="none" fill-rule="evenodd" opacity="0.049999997">
        <g id="Desktop-HD" transform="translate(-635.000000, -3761.000000)" fill="#222628">
            <path d="M1439.50664,3791.202 C1441.29333,3798.03827 1438.11637,3805.0246 1431.77082,3808.1954 C1377.46929,3835.32926 1215.45806,3933.52138 1166.84045,4065 C1161.73162,4027.84795 1152.53294,3990.23738 1140.7268,3953.72171 C1151.39951,3924.74818 1195.28238,3897.86164 1226.98223,3881.66303 C1229.99448,3880.12626 1228.09333,3875.58542 1224.87728,3876.63865 C1190.47785,3887.90737 1142.41579,3906.77658 1131.59233,3927.07695 C1113.4546,3877.01937 1090.93389,3829.84358 1068,3789.78195 C1069.18927,3783.72935 1071.91956,3779.18574 1074.74756,3775.9927 C1092.74571,3755.6701 1137.48842,3759.70794 1171.83761,3766.6637 C1261.95397,3784.92709 1378.49664,3782.16202 1424.42025,3780.12503 C1431.5056,3779.84991 1437.72274,3784.36574 1439.50664,3791.202 Z M1067.90657,4112.44518 C1088.35765,4108.05506 1120.40271,4087.88892 1135.70184,4070.06955 C1139.62806,4099.4697 1140.71946,4125.92733 1139.5637,4148.49872 C1110.18276,4195.13363 1056.4749,4232.53454 1008.88165,4258.68873 C953.696198,4289.0159 899.548975,4308.52507 872.182926,4317.45841 C838.450401,4328.46294 814.993787,4334 802.12651,4334 C797.847679,4334 794.744198,4333.38755 792.816065,4332.15988 C786.729435,4328.28199 775.711934,4302.67065 763.046146,4266.16613 L726.831396,4311.98816 C726.235326,4312.74259 725.135534,4312.87343 724.379953,4312.28047 L708.775792,4300.07611 C708.02021,4299.48315 707.888683,4298.39188 708.484753,4297.63746 L740.47944,4257.15484 L685.305185,4246.30342 C684.359309,4246.1169 683.74365,4245.2038 683.931146,4244.26287 L687.781814,4224.8929 C687.969311,4223.95196 688.887202,4223.3423 689.833079,4223.52603 L752.977321,4235.94753 C738.008408,4189.33489 722.023657,4132.44987 709.685288,4080.68155 L666.205759,4120.0924 C665.494953,4120.73825 664.389565,4120.68814 663.740324,4119.97826 L650.372125,4105.38536 C649.722885,4104.67548 649.776055,4103.57865 650.486862,4102.9328 L688.752877,4068.24613 L636.130809,4048.49756 C635.22691,4048.16071 634.773561,4047.15853 635.112173,4046.25935 L642.116696,4027.78856 C642.458107,4026.88938 643.465549,4026.4384 644.36665,4026.77524 L702.364541,4048.5421 C693.910421,4009.44861 688.417063,3975.71402 688.291132,3955.25 C688.193187,3939.3654 700.539951,3926.43724 716.40157,3925.82201 C792.284359,3922.89341 996.839913,3872.92902 1054.51318,3829 C1065.44953,3849.37772 1075.14896,3869.50768 1083.73461,3889.25904 C1078.09853,3905.69762 1054.61673,3930.06737 1037.98274,3939.34313 C1035.41935,3940.77402 1036.95291,3944.65748 1039.81012,3943.97266 C1055.87883,3940.11982 1080.76265,3923.17736 1094.0329,3914.12431 C1111.31893,3957.96703 1123.07523,3999.56597 1130.35959,4037.34549 C1123.26832,4059.63849 1089.21677,4093.60136 1065.56427,4106.05627 C1062.01303,4107.92701 1063.97754,4113.28869 1067.90657,4112.44518 Z M1005.7043,4140.29482 C1075.93106,3967.88649 916.311275,3886.04031 813.272555,3999.05592 C775.658497,4040.31006 755.498686,4124.90207 801.858112,4140.38941 C822.222804,4147.19138 841.933558,4142.34793 858.427949,4133.50676 C864.15622,4160.04974 871.377603,4191.59752 877.72052,4217.76493 C852.73055,4227.47129 831.41442,4229.1071 820.783018,4227.96371 C802.702898,4226.01909 815.296114,4271.70217 849.466474,4264.90855 C859.556202,4262.90273 872.500243,4259.16095 886.729707,4253.34659 C886.729707,4253.34659 887.521168,4257.13566 888.56803,4260.05675 C893.673237,4274.29777 921.983415,4265.64021 916.156912,4243.13112 C915.517007,4240.65793 915.300899,4239.4728 915.300899,4239.4728 C949.970834,4219.82916 986.184398,4188.2174 1005.7043,4140.29482 Z M937.814335,4003.30567 C988.374634,4028.47635 1000.85044,4125.5 934.029856,4184.62423 C925.409027,4192.25424 916.669757,4198.64785 908.037649,4204 C902.022527,4174.7442 895.119096,4138.78291 890.130465,4110.46276 C895.223437,4105.16074 898.979716,4100.33768 901.052437,4096.99885 C911.531665,4080.11258 899.992106,4062.67495 893.951604,4070.32445 C892.57261,4072.07044 889.338037,4075.40091 884.995192,4079.38021 C884.253525,4074.37058 883.717719,4070.26876 883.461096,4067.44231 C881.165593,4042.0043 847.683389,4062.97012 848.408136,4080.0374 C848.543498,4083.25648 849.992993,4091.69405 852.277216,4103.26437 C835.266802,4112.13078 819.686142,4112.94112 820.004805,4086.77631 C820.664692,4032.89006 887.256855,3978.13499 937.814335,4003.30567 Z" id="Logo"></path>
        </g>
    </g>
</svg>