<?xml version="1.0" encoding="UTF-8"?>
<svg width="140px" height="56px" viewBox="0 0 140 56" version="1.1" xmlns="http://www.w3.org/2000/svg" xmlns:xlink="http://www.w3.org/1999/xlink">
    <!-- Generator: Sketch 46.2 (44496) - http://www.bohemiancoding.com/sketch -->
    <title>IBM_logo</title>
    <desc>Created with Sketch.</desc>
    <defs></defs>
    <g id="Welcome" stroke="none" stroke-width="1" fill="none" fill-rule="evenodd">
        <g id="Desktop-HD" transform="translate(-390.000000, -3249.000000)" fill-rule="nonzero" fill="#1F70C1">
            <g id="Group-4" transform="translate(121.000000, 3148.000000)">
                <g id="IBM_logo" transform="translate(269.000000, 101.000000)">
                    <path d="M0,0 L0,3.83138 L27.2507816,3.83138 L27.2507816,0 L0,0 Z M31.1117198,0 L31.1117198,3.83138 L69.9453118,3.83138 C69.9453104,3.83138 65.978675,0 60.725,0 L31.1117198,0 Z M77.5632816,0 L77.5632816,3.83138 L101.057032,3.83138 L99.6625,0 L77.5632816,0 Z M117.900782,0 L116.50625,3.83138 L139.786718,3.83138 L139.786718,0 L117.900782,0 Z M0,7.4511094 L0,11.2824883 L27.2507816,11.2824883 L27.2507816,7.4511094 L0,7.4511094 Z M31.1117198,7.4565365 L31.1117198,11.2824883 L74.4515632,11.2824883 C74.4515632,11.28249 73.945375,8.33369404 73.0625,7.4565365 L31.1117198,7.4565365 Z M77.5632816,7.4565365 L77.5632816,11.2824883 L103.632813,11.2824883 L102.342187,7.4565365 L77.5632816,7.4565365 Z M115.111718,7.4565365 L113.821093,11.2824883 L139.786718,11.2824883 L139.786718,7.4565365 L115.111718,7.4565365 Z M7.83124944,14.9022188 L7.83124944,18.7390238 L19.6328118,18.7390238 L19.6328118,14.9022188 L7.83124944,14.9022188 Z M38.9429698,14.9022188 L38.9429698,18.7390238 L50.7445302,18.7390238 L50.7445302,14.9022188 L38.9429698,14.9022188 Z M62.2234382,14.9022188 L62.2234382,18.7390238 L74.025,18.7390238 C74.0250014,18.7390238 74.7742184,16.712801 74.7742184,14.9022188 L62.2234382,14.9022188 Z M85.3945316,14.9022188 L85.3945316,18.7390238 L106.31797,18.7390238 L104.923438,14.9022188 L85.3945316,14.9022188 Z M112.541407,14.9022188 L111.141407,18.7390238 L132.16875,18.7390238 L132.16875,14.9022188 L112.541407,14.9022188 Z M7.83124944,22.358756 L7.83124944,26.1901332 L19.6328118,26.1901332 L19.6328118,22.358756 L7.83124944,22.358756 Z M38.9429698,22.358756 L38.9429698,26.1901332 L69.0867198,26.1901332 C69.0867212,26.1901318 71.6082934,24.224214 72.4117184,22.358756 L38.9429698,22.358756 Z M85.3945316,22.358756 L85.3945316,26.1901332 L97.1960934,26.1901332 L97.1960934,24.057369 L97.9453118,26.1901332 L119.563282,26.1901332 L120.367188,24.057369 L120.367188,26.1901332 L132.16875,26.1901332 L132.16875,22.358756 L110.014843,22.358756 L108.839062,25.6040302 L107.657813,22.358756 L85.3945316,22.358756 Z M7.83124944,29.8098654 L7.83124944,33.6412426 L19.6328118,33.6412426 L19.6328118,29.8098654 L7.83124944,29.8098654 Z M38.9429698,29.8098654 L38.9429698,33.6412426 L72.4117184,33.6412426 C71.6081198,31.7818634 69.0867198,29.8098654 69.0867198,29.8098654 L38.9429698,29.8098654 Z M85.3945316,29.8098654 L85.3945316,33.6412426 L97.1960934,33.6412426 L97.1960934,29.8098654 L85.3945316,29.8098654 Z M99.3398434,29.8098654 L100.767188,33.6412426 L116.976563,33.6412426 L118.332813,29.8098654 L99.3398434,29.8098654 Z M120.367188,29.8098654 L120.367188,33.6412426 L132.16875,33.6412426 L132.16875,29.8098654 L120.367188,29.8098654 Z M7.83124944,37.2609748 L7.83124944,41.092352 L19.6328118,41.092352 L19.6328118,37.2609748 L7.83124944,37.2609748 Z M38.9429698,37.2609748 L38.9429698,41.092352 L50.7445302,41.092352 L50.7445302,37.2609748 L38.9429698,37.2609748 Z M62.2234382,37.2609748 L62.2234382,41.092352 L74.7742184,41.092352 C74.7742212,39.2842058 74.025,37.2609748 74.025,37.2609748 L62.2234382,37.2609748 Z M85.3945316,37.2609748 L85.3945316,41.092352 L97.1960934,41.092352 L97.1960934,37.2609748 L85.3945316,37.2609748 Z M102.01953,37.2609748 L103.403125,41.092352 L114.26953,41.092352 L115.664062,37.2609748 L102.01953,37.2609748 Z M120.367188,37.2609748 L120.367188,41.092352 L132.16875,41.092352 L132.16875,37.2609748 L120.367188,37.2609748 Z M0.2132802,44.7120842 L0.2132802,48.5488892 L27.4640618,48.5488892 L27.4640618,44.7120842 L0.2132802,44.7120842 Z M31.1117198,44.7120842 L31.1117198,48.5488892 L73.0625,48.5488892 C73.945375,47.670343 74.4515632,44.7120842 74.4515632,44.7120842 L31.1117198,44.7120842 Z M77.7765618,44.7120842 L77.7765618,48.5488892 L97.1960934,48.5488892 L97.1960934,44.7120842 L77.7765618,44.7120842 Z M104.704687,44.7120842 L106.126562,48.5488892 L111.655468,48.5488892 L112.989843,44.7120842 L104.704687,44.7120842 Z M120.367188,44.7120842 L120.367188,48.5488892 L140,48.5488892 L140,44.7120842 L120.367188,44.7120842 Z M0.2132802,52.16862 L0.2132802,56 L27.4640618,56 L27.4640618,52.16862 L0.2132802,52.16862 Z M31.1117198,52.16862 L31.1117198,55.9945736 L60.725,55.9945736 C65.9786736,55.9945708 69.9453118,52.16862 69.9453118,52.16862 L31.1117198,52.16862 Z M77.7765618,52.16862 L77.7765618,56 L97.1960934,56 L97.1960934,52.16862 L77.7765618,52.16862 Z M107.400782,52.16862 L108.76797,55.9891444 L109.003125,55.9945736 L110.392188,52.16862 L107.400782,52.16862 Z M120.367188,52.16862 L120.367188,56 L140,56 L140,52.16862 L120.367188,52.16862 Z" id="Shape"></path>
                </g>
            </g>
        </g>
    </g>
</svg>