<?xml version="1.0" encoding="UTF-8"?>
<svg width="263px" height="56px" viewBox="0 0 263 56" version="1.1" xmlns="http://www.w3.org/2000/svg" xmlns:xlink="http://www.w3.org/1999/xlink">
    <!-- Generator: Sketch 46.2 (44496) - http://www.bohemiancoding.com/sketch -->
    <title>microsoft</title>
    <desc>Created with Sketch.</desc>
    <defs></defs>
    <g id="Welcome" stroke="none" stroke-width="1" fill="none" fill-rule="evenodd">
        <g id="Desktop-HD" transform="translate(-690.000000, -3225.000000)" fill-rule="nonzero">
            <g id="microsoft" transform="translate(690.000000, 3225.000000)">
                <g id="Group" transform="translate(72.496124, 8.682171)" fill="#737373">
                    <path d="M20.055814,23.572093 L18.4930233,28 L18.3627907,28 C18.1023256,27.0015504 17.6248062,25.4821705 16.8434109,23.6589147 L8.46511628,2.60465116 L0.260465116,2.60465116 L0.260465116,36.1612403 L5.68682171,36.1612403 L5.68682171,15.4542636 C5.68682171,14.151938 5.68682171,12.675969 5.64341085,10.8527132 C5.6,9.94108527 5.51317829,9.24651163 5.46976744,8.7255814 L5.6,8.7255814 C5.86046512,10.027907 6.16434109,10.9829457 6.38139535,11.5906977 L16.4527132,36.0744186 L20.2728682,36.0744186 L30.2573643,11.3736434 C30.4744186,10.8093023 30.6914729,9.68062016 30.9085271,8.7255814 L31.0387597,8.7255814 C30.9085271,11.2 30.8217054,13.4139535 30.7782946,14.7596899 L30.7782946,36.0310078 L36.551938,36.0310078 L36.551938,2.51782946 L28.6511628,2.51782946 L20.055814,23.572093 L20.055814,23.572093 Z M42.0217054,11.9813953 L47.6651163,11.9813953 L47.6651163,36.0310078 L42.0217054,36.0310078 L42.0217054,11.9813953 Z M44.8868217,1.82325581 C43.9317829,1.82325581 43.1503876,2.17054264 42.4992248,2.77829457 C41.848062,3.38604651 41.5007752,4.16744186 41.5007752,5.12248062 C41.5007752,6.03410853 41.848062,6.81550388 42.4992248,7.42325581 C43.1503876,8.03100775 43.9317829,8.33488372 44.8868217,8.33488372 C45.8418605,8.33488372 46.6666667,7.9875969 47.2744186,7.42325581 C47.9255814,6.81550388 48.2728682,6.03410853 48.2728682,5.12248062 C48.2728682,4.21085271 47.9255814,3.42945736 47.2744186,2.77829457 C46.7100775,2.17054264 45.8852713,1.82325581 44.8868217,1.82325581 L44.8868217,1.82325581 Z M67.6775194,11.7643411 C66.6356589,11.5472868 65.5503876,11.4170543 64.5085271,11.4170543 C61.9472868,11.4170543 59.6031008,11.9813953 57.6496124,13.1100775 C55.696124,14.2387597 54.1333333,15.8015504 53.1348837,17.7550388 C52.0930233,19.751938 51.572093,22.0527132 51.572093,24.7007752 C51.572093,27.0015504 52.0930233,29.0418605 53.0914729,30.9085271 C54.0899225,32.7317829 55.4790698,34.2077519 57.3457364,35.2062016 C59.1255814,36.2046512 61.2093023,36.7255814 63.5534884,36.7255814 C66.2449612,36.7255814 68.5457364,36.1612403 70.3689922,35.1193798 L70.4124031,35.075969 L70.4124031,29.8666667 L70.1953488,30.0403101 C69.3705426,30.648062 68.4155039,31.1689922 67.4604651,31.4728682 C66.4620155,31.820155 65.5503876,31.9937984 64.7689922,31.9937984 C62.5116279,31.9937984 60.7317829,31.3426357 59.4728682,29.9100775 C58.1705426,28.5209302 57.5193798,26.6108527 57.5193798,24.2232558 C57.5193798,21.7488372 58.1705426,19.7953488 59.5162791,18.3627907 C60.8620155,16.9302326 62.6418605,16.1922481 64.8124031,16.1922481 C66.6356589,16.1922481 68.5023256,16.8 70.1953488,18.0155039 L70.4124031,18.1891473 L70.4124031,12.675969 L70.3689922,12.6325581 C69.6310078,12.3286822 68.8062016,11.9813953 67.6775194,11.7643411 L67.6775194,11.7643411 Z M86.3007752,11.5906977 C84.9116279,11.5906977 83.6093023,12.0248062 82.4806202,12.9364341 C81.5255814,13.7178295 80.8744186,14.8465116 80.3100775,16.1922481 L80.2666667,16.1922481 L80.2666667,11.9813953 L74.6232558,11.9813953 L74.6232558,36.0310078 L80.2666667,36.0310078 L80.2666667,23.7457364 C80.2666667,21.6620155 80.7007752,19.9255814 81.655814,18.6666667 C82.6108527,17.3643411 83.8263566,16.7131783 85.3023256,16.7131783 C85.8232558,16.7131783 86.344186,16.8434109 86.9953488,16.9302326 C87.6031008,17.103876 88.0372093,17.2775194 88.3410853,17.4945736 L88.5581395,17.6682171 L88.5581395,12.0248062 L88.427907,11.9813953 C88.0372093,11.7209302 87.255814,11.5906977 86.3007752,11.5906977 L86.3007752,11.5906977 Z M101.668217,11.4604651 C97.7178295,11.4604651 94.5488372,12.6325581 92.3348837,14.9333333 C90.0775194,17.2341085 88.9922481,20.4031008 88.9922481,24.3968992 C88.9922481,28.1302326 90.1209302,31.1689922 92.2914729,33.3829457 C94.4620155,35.5534884 97.4139535,36.6821705 101.103876,36.6821705 C104.967442,36.6821705 108.049612,35.5100775 110.263566,33.1658915 C112.52093,30.8217054 113.606202,27.696124 113.606202,23.8325581 C113.606202,20.0124031 112.564341,16.9736434 110.437209,14.7596899 C108.396899,12.5457364 105.40155,11.4604651 101.668217,11.4604651 L101.668217,11.4604651 Z M106.182946,29.9534884 C105.141085,31.2992248 103.491473,31.9503876 101.451163,31.9503876 C99.4108527,31.9503876 97.7612403,31.2992248 96.5891473,29.8666667 C95.4170543,28.5209302 94.8527132,26.5674419 94.8527132,24.0930233 C94.8527132,21.5317829 95.4604651,19.5782946 96.5891473,18.1891473 C97.7612403,16.8 99.3674419,16.1054264 101.407752,16.1054264 C103.404651,16.1054264 104.967442,16.7565891 106.096124,18.1023256 C107.224806,19.448062 107.832558,21.4015504 107.832558,23.9627907 C107.745736,26.5674419 107.268217,28.6077519 106.182946,29.9534884 L106.182946,29.9534884 Z M126.195349,21.9658915 C124.415504,21.227907 123.286822,20.6635659 122.765891,20.1860465 C122.331783,19.751938 122.114729,19.144186 122.114729,18.3627907 C122.114729,17.7116279 122.375194,17.0604651 123.026357,16.6263566 C123.677519,16.1922481 124.415504,15.9751938 125.500775,15.9751938 C126.455814,15.9751938 127.454264,16.1488372 128.409302,16.4093023 C129.364341,16.6697674 130.232558,17.0604651 130.927132,17.5813953 L131.144186,17.7550388 L131.144186,12.4589147 L131.013953,12.4155039 C130.362791,12.1550388 129.494574,11.8945736 128.452713,11.6775194 C127.410853,11.503876 126.455814,11.4170543 125.674419,11.4170543 C122.982946,11.4170543 120.768992,12.0682171 119.032558,13.5007752 C117.296124,14.8465116 116.471318,16.6697674 116.471318,18.7968992 C116.471318,19.9255814 116.644961,20.924031 117.035659,21.7488372 C117.426357,22.5736434 117.990698,23.3550388 118.772093,24.0062016 C119.553488,24.6139535 120.682171,25.3085271 122.244961,25.9596899 C123.547287,26.524031 124.545736,26.9581395 125.153488,27.3054264 C125.76124,27.6527132 126.151938,28.0434109 126.455814,28.3472868 C126.672868,28.6945736 126.803101,29.1286822 126.803101,29.6930233 C126.803101,31.2992248 125.587597,32.0806202 123.113178,32.0806202 C122.15814,32.0806202 121.15969,31.9069767 119.987597,31.5162791 C118.815504,31.1255814 117.730233,30.5612403 116.818605,29.9100775 L116.60155,29.7364341 L116.60155,35.2496124 L116.731783,35.2930233 C117.556589,35.6837209 118.555039,35.944186 119.770543,36.248062 C120.986047,36.4651163 122.071318,36.6387597 123.026357,36.6387597 C125.934884,36.6387597 128.322481,35.9875969 130.015504,34.5550388 C131.751938,33.1658915 132.663566,31.3860465 132.663566,29.0852713 C132.663566,27.4790698 132.229457,26.0465116 131.274419,24.9612403 C130.015504,23.9193798 128.452713,22.8341085 126.195349,21.9658915 L126.195349,21.9658915 Z M147.553488,11.4604651 C143.603101,11.4604651 140.434109,12.6325581 138.220155,14.9333333 C136.006202,17.2341085 134.877519,20.4031008 134.877519,24.3968992 C134.877519,28.1302326 136.006202,31.1689922 138.176744,33.3829457 C140.347287,35.5534884 143.299225,36.6821705 146.989147,36.6821705 C150.852713,36.6821705 153.934884,35.5100775 156.148837,33.1658915 C158.406202,30.8217054 159.491473,27.696124 159.491473,23.8325581 C159.491473,20.0124031 158.449612,16.9736434 156.322481,14.7596899 C154.282171,12.5457364 151.286822,11.4604651 147.553488,11.4604651 L147.553488,11.4604651 Z M152.024806,29.9534884 C150.982946,31.2992248 149.333333,31.9503876 147.293023,31.9503876 C145.209302,31.9503876 143.603101,31.2992248 142.431008,29.8666667 C141.258915,28.5209302 140.694574,26.5674419 140.694574,24.0930233 C140.694574,21.5317829 141.302326,19.5782946 142.431008,18.1891473 C143.603101,16.8 145.209302,16.1054264 147.249612,16.1054264 C149.203101,16.1054264 150.809302,16.7565891 151.937984,18.1023256 C153.066667,19.448062 153.674419,21.4015504 153.674419,23.9627907 C153.674419,26.5674419 153.110078,28.6077519 152.024806,29.9534884 L152.024806,29.9534884 Z" id="Shape"></path>
                    <path d="M189.662016,16.6263566 L189.662016,11.9813953 L183.975194,11.9813953 L183.975194,4.8620155 L183.80155,4.90542636 L178.418605,6.51162791 L178.288372,6.55503876 L178.288372,11.9813953 L169.779845,11.9813953 L169.779845,8.94263566 C169.779845,7.55348837 170.127132,6.46821705 170.734884,5.77364341 C171.342636,5.07906977 172.254264,4.73178295 173.382946,4.73178295 C174.164341,4.73178295 174.989147,4.90542636 175.900775,5.29612403 L176.117829,5.42635659 L176.117829,0.520930233 L175.987597,0.47751938 C175.206202,0.217054264 174.164341,0.0434108527 172.818605,0.0434108527 C171.125581,0.0434108527 169.649612,0.434108527 168.303876,1.08527132 C166.95814,1.82325581 165.95969,2.82170543 165.221705,4.16744186 C164.483721,5.46976744 164.093023,6.94573643 164.093023,8.63875969 L164.093023,11.9813953 L160.142636,11.9813953 L160.142636,16.5829457 L164.093023,16.5829457 L164.093023,36.0310078 L169.779845,36.0310078 L169.779845,16.6263566 L178.288372,16.6263566 L178.288372,28.9984496 C178.288372,34.0775194 180.675969,36.6387597 185.451163,36.6387597 C186.232558,36.6387597 187.057364,36.5085271 187.83876,36.3782946 C188.663566,36.2046512 189.271318,35.9875969 189.618605,35.8139535 L189.662016,35.7705426 L189.662016,31.1255814 L189.444961,31.2992248 C189.097674,31.5162791 188.793798,31.6899225 188.272868,31.820155 C187.83876,31.9503876 187.448062,31.9937984 187.144186,31.9937984 C186.015504,31.9937984 185.234109,31.7333333 184.669767,31.0821705 C184.148837,30.4744186 183.888372,29.475969 183.888372,28 L183.888372,16.6263566 L189.662016,16.6263566 L189.662016,16.6263566 Z" id="Shape"></path>
                </g>
                <polygon id="Shape" fill="#F25022" points="0 0 26.6108527 0 26.6108527 26.6108527 0 26.6108527"></polygon>
                <polygon id="Shape" fill="#7FBA00" points="29.3891473 0 56 0 56 26.6108527 29.3891473 26.6108527"></polygon>
                <polygon id="Shape" fill="#00A4EF" points="0 29.3891473 26.6108527 29.3891473 26.6108527 56 0 56"></polygon>
                <polygon id="Shape" fill="#FFB900" points="29.3891473 29.3891473 56 29.3891473 56 56 29.3891473 56"></polygon>
            </g>
        </g>
    </g>
</svg>